<?xml version="1.0" encoding="UTF-8" standalone="no"?>
<!-- Created with Inkscape (http://www.inkscape.org/) -->

<svg
   width="650"
   height="650"
   viewBox="0 0 171.97916 171.97916"
   version="1.1"
   id="svg1"
   xml:space="preserve"
   inkscape:version="1.4 (86a8ad7, 2024-10-11)"
   sodipodi:docname="icon2.svg"
   xmlns:inkscape="http://www.inkscape.org/namespaces/inkscape"
   xmlns:sodipodi="http://sodipodi.sourceforge.net/DTD/sodipodi-0.dtd"
   xmlns="http://www.w3.org/2000/svg"
   xmlns:svg="http://www.w3.org/2000/svg"><sodipodi:namedview
     id="namedview1"
     pagecolor="#ffffff"
     bordercolor="#000000"
     borderopacity="0.25"
     inkscape:showpageshadow="2"
     inkscape:pageopacity="0.0"
     inkscape:pagecheckerboard="0"
     inkscape:deskcolor="#d1d1d1"
     inkscape:document-units="mm"
     inkscape:zoom="1.0771772"
     inkscape:cx="275.25648"
     inkscape:cy="384.80206"
     inkscape:window-width="1920"
     inkscape:window-height="1057"
     inkscape:window-x="1912"
     inkscape:window-y="-8"
     inkscape:window-maximized="1"
     inkscape:current-layer="layer1" /><defs
     id="defs1" /><g
     inkscape:label="Layer 1"
     inkscape:groupmode="layer"
     id="layer1"
     transform="translate(-16.362109,-11.931965)"><path
       style="fill:#383838;stroke:none;stroke-width:1.00431"
       d="m 31.543,12.360527 c -1.846807,0.213997 -3.663144,0.702913 -5.353189,1.482003 -12.29137,5.66618 -9.516786,20.50468 -9.516786,31.534111 v 93.779969 22.20582 c 0,5.35081 -0.299886,10.46402 2.934238,15.06825 5.075609,7.22583 12.542839,7.13759 20.461184,7.13759 h 18.438773 77.32385 24.78329 c 4.40018,0 9.13428,0.48937 13.48211,-0.23525 1.78681,-0.29782 3.55938,-0.87611 5.15493,-1.73779 11.63425,-6.28316 8.72371,-21.10345 8.72371,-32.12877 V 55.289958 34.273725 c 0,-5.790633 0.24539,-11.068971 -3.58084,-15.861084 -4.97799,-6.234657 -11.9763,-6.146479 -19.21979,-6.146479 H 145.14959 69.411867 44.628575 c -4.296046,0 -8.816997,-0.400255 -13.085575,0.09441 m 42.230725,19.207539 c 4.908743,-0.459399 9.918097,0.125187 14.671705,1.344153 4.022132,1.031401 7.803452,2.745037 11.301176,4.971592 20.446164,13.015435 24.568654,42.664274 9.087384,61.024732 -3.30074,3.914622 -7.33748,7.325722 -11.863113,9.748812 -4.87306,2.6091 -10.134213,4.38677 -15.663034,4.87113 -12.273605,1.0752 -24.684197,-3.09486 -33.470292,-11.88092 C 33.517474,87.327577 31.996002,63.418031 44.265509,47.359341 c 3.2566,-4.262322 7.417487,-7.811627 12.060782,-10.477184 5.352616,-3.072763 11.323954,-4.740974 17.447434,-5.314051 m 2.379189,8.545684 c -11.998224,1.062585 -22.798101,6.701237 -28.289431,17.951937 -8.998304,18.435821 1.609911,41.461629 21.746644,46.102943 3.005634,0.69274 6.234687,1.08316 9.318516,0.83437 C 93.085531,103.86092 105.46313,94.390354 108.8092,80.271549 112.77714,63.528786 103.24491,46.761347 86.859301,41.548752 83.546238,40.494794 79.635765,39.805338 76.152914,40.11379 M 58.947277,58.032655 c 1.708142,-0.63447 4.295042,-0.165198 6.102731,-0.165198 h 10.111577 c 1.5419,0 3.435005,-0.293066 4.93137,0.110795 1.91756,0.517549 1.844617,5.61249 0.180031,6.393769 -1.468746,0.689355 -3.914099,0.236494 -5.507931,0.236494 H 64.058679 c -1.506097,0 -3.50134,0.337316 -4.937677,-0.165198 -1.728771,-0.604813 -1.926188,-5.759741 -0.173725,-6.410662 m 0.01205,11.895976 c 2.798205,-1.056097 7.464458,-0.165198 10.452487,-0.165198 h 17.447445 c 2.578122,0 5.80868,-0.525061 8.313287,0.09571 1.9409,0.481022 2.065786,5.345003 0.53881,6.326882 -2.068467,1.330082 -6.850196,0.318255 -9.248637,0.318516 H 67.627427 c -2.538161,0 -6.091895,0.695381 -8.500159,-0.08677 -1.768189,-0.574282 -1.921497,-5.82724 -0.167939,-6.489068 M 118.9784,92.564138 c 2.0929,1.647713 5.7267,4.470102 6.79492,6.939317 0.64796,1.497775 0.11671,3.203225 0.95583,4.757865 0.74024,1.37145 2.6767,2.34537 3.05823,3.81362 0.55219,2.12495 0.0956,4.89971 0.0956,7.09156 0,4.14193 0.44679,8.5662 -0.0344,12.67861 -0.15771,1.34771 -1.44684,2.03983 -2.27057,2.99005 -1.38506,1.59774 -1.96748,3.69594 -1.35046,5.7441 1.93391,6.41928 11.52113,6.50022 12.84778,-0.39654 0.37068,-1.92707 -0.31058,-3.87152 -1.5622,-5.34255 -0.71266,-0.8376 -2.00683,-1.47047 -2.21786,-2.62307 -0.3868,-2.11248 -0.059,-4.55991 -0.059,-6.70608 v -13.28385 c 2.51093,1.97685 6.35956,5.10824 7.8874,7.93066 1.11677,2.06301 0.13041,4.25353 1.93007,6.32612 5.06606,5.83434 14.78302,-1.0035 10.42663,-7.51056 -1.09843,-1.64069 -2.81156,-2.80739 -4.77933,-3.08861 -1.70632,-0.24385 -2.94368,0.37989 -4.36185,-0.90615 -2.12695,-1.92878 -5.80944,-4.69014 -7.01433,-7.31158 -0.39378,-0.85674 -0.0917,-1.86689 -0.18832,-2.77572 -0.17065,-1.604463 -0.96883,-3.017832 -2.13462,-4.114524 -1.15546,-1.086989 -2.55551,-1.743755 -4.14484,-1.815944 -0.99801,-0.04529 -2.24427,0.336784 -3.17227,-0.103524 -2.78502,-1.321405 -5.36082,-5.076572 -7.53412,-7.249859 2.28998,-2.908699 6.59695,-8.44693 10.50812,-8.806642 4.02356,-0.370037 6.57964,3.292032 9.12025,5.832643 l 18.2405,18.2405 9.51671,9.51679 c 2.25653,2.2587 4.29137,4.84171 2.67126,8.12892 -1.71824,3.48629 -6.08144,6.76093 -8.81868,9.51678 -6.45439,6.49829 -12.95248,12.95373 -19.42886,19.4301 -2.92379,2.92378 -6.35849,8.07106 -11.10291,7.19049 -2.97665,-0.55246 -5.11159,-3.57837 -7.13759,-5.60436 L 111.24596,136.57926 99.548246,124.88155 c -1.857543,-1.85757 -4.260072,-3.71087 -4.422438,-6.54279 -0.241978,-4.22068 5.705842,-5.69593 8.586032,-7.77065 6.35826,-4.58017 12.05919,-10.780067 15.26651,-18.003974 M 58.938188,81.876469 c 1.747371,-0.797408 4.807348,-0.21698 6.70658,-0.21698 h 11.895976 c 1.791952,0 3.995267,-0.343743 5.735828,0.110795 1.967766,0.513863 2.039081,5.320458 0.537575,6.360858 -1.496968,1.037257 -4.533856,0.467665 -6.273403,0.467665 H 65.049968 c -1.806333,0 -4.198378,0.401411 -5.913651,-0.239527 -1.772558,-0.662349 -1.911896,-5.700738 -0.198129,-6.482811 m 8.094439,37.057091 c -0.548762,2.60198 -2.048953,5.11358 -3.127969,7.53412 -2.15327,4.83037 -4.355883,9.63878 -6.499391,14.47344 -1.614592,3.64169 -3.236133,7.28498 -4.899433,10.90465 -0.813126,1.76953 -1.469098,3.80245 -2.672256,5.35033 -3.827427,4.9241 -12.235019,3.71051 -14.160714,-2.37634 -1.421062,-4.49178 1.831893,-9.16589 3.622017,-13.08558 4.347808,-9.52002 9.63888,-18.93434 13.264311,-28.74861 z"
       id="path1" /></g></svg>
